<svg width="65" height="45" viewBox="0 0 65 45" fill="none" xmlns="http://www.w3.org/2000/svg">
<path d="M63.8655 27.1452L52.8578 21.907C55.4245 20.2967 57.1684 17.1459 57.1684 13.5235C57.1684 8.26164 53.4978 4 48.9675 4C47.4107 4 45.9729 4.52999 44.7351 5.402C45.5017 7.34701 45.8942 9.41874 45.892 11.5088C45.892 14.7539 44.9323 17.8313 43.2905 20.3754C43.8434 21.0016 44.4874 21.5414 45.2009 21.9769L45.1941 21.979L52.2851 25.3523C54.2894 26.3207 55.5857 28.4624 55.5857 30.8117V40H63.1677C64.1804 40 65 39.0493 65 37.876V29.1192C65 28.2493 64.5518 27.477 63.8655 27.1452V27.1452ZM19.9636 21.8806C20.5551 21.5004 21.0962 21.0473 21.5742 20.5322C19.8643 17.9664 18.8727 14.8312 18.8727 11.5088C18.8727 9.28905 19.3121 7.18605 20.0813 5.28596C18.8843 4.49063 17.5152 4 16.0359 4C11.5022 4 7.83229 8.26164 7.83229 13.5235C7.83229 17.205 9.6353 20.391 12.2694 21.9769L1.15009 27.1411C0.456362 27.4662 0 28.2466 0 29.1192V37.8753C0 39.0486 0.822268 39.9993 1.83225 39.9993H9.18097V30.811C9.18097 28.4339 10.4991 26.2834 12.5428 25.3279L19.9636 21.8806Z" fill="#EEBF00"/>
<path d="M50.62 28.9329L41.2123 24.3309L37.2346 22.3845C38.9722 21.2626 40.3829 19.5301 41.3065 17.4432C42.0769 15.7038 42.4754 13.8154 42.4754 11.905C42.4754 10.7797 42.3016 9.71124 42.059 8.67981C40.8755 3.68164 37.0695 0 32.501 0C28.018 0 24.2702 3.55074 23.0138 8.40636C22.7238 9.52003 22.5239 10.6783 22.5239 11.905C22.5239 14.0357 23.0098 16.0225 23.8345 17.7503C24.7881 19.7549 26.2016 21.4079 27.9218 22.4709L24.1112 24.2898L14.3981 28.9281C13.5547 29.3332 13 30.3098 13 31.3995V42.3443C13 43.8109 13.9971 45 15.2274 45H49.7726C51.0029 45 52 43.8109 52 42.3443V31.3995C52.0007 30.3139 51.4553 29.3469 50.62 28.9329V28.9329Z" fill="#EEBF00"/>
</svg>
