<svg width="93" height="64" viewBox="0 0 93 64" fill="none" xmlns="http://www.w3.org/2000/svg">
<path d="M91.3769 39.3917L75.6273 31.8679C79.2997 29.555 81.7948 25.0294 81.7948 19.8264C81.7948 12.2686 76.543 6.14746 70.0611 6.14746C67.8337 6.14746 65.7766 6.9087 64.0056 8.1612C65.1025 10.9549 65.664 13.9306 65.6608 16.9326C65.6608 21.5936 64.2877 26.0139 61.9387 29.668C62.7299 30.5674 63.6513 31.3428 64.6721 31.9683L64.6624 31.9713L74.8079 36.8165C77.6756 38.2074 79.5304 41.2836 79.5304 44.658V57.8555H90.3785C91.8274 57.8555 93 56.4899 93 54.8047V42.2271C93 40.9775 92.3587 39.8683 91.3769 39.3917V39.3917ZM28.5634 31.8299C29.4096 31.2838 30.1838 30.6331 30.8677 29.8932C28.4213 26.2078 27.0025 21.7047 27.0025 16.9326C27.0025 13.7443 27.6311 10.7237 28.7317 7.99452C27.0191 6.85217 25.0602 6.14746 22.9437 6.14746C16.457 6.14746 11.2062 12.2686 11.2062 19.8264C11.2062 25.1142 13.7859 29.6904 17.5547 31.9683L1.64551 39.3858C0.652949 39.8527 0 40.9736 0 42.2271V54.8037C0 56.4889 1.17648 57.8545 2.62153 57.8545H13.1359V44.657C13.1359 41.2426 15.0217 38.1538 17.9459 36.7814L28.5634 31.8299Z" fill="#EEBF00"/>
<path d="M72.7159 41.1491L59.0176 34.6039L53.2257 31.8358C55.7558 30.2402 57.81 27.7761 59.1548 24.8081C60.2764 22.3343 60.8567 19.6486 60.8567 16.9316C60.8567 15.3311 60.6037 13.8115 60.2505 12.3446C58.5271 5.23611 52.9853 0 46.3332 0C39.8057 0 34.3486 5.04994 32.5191 11.9557C32.0968 13.5396 31.8059 15.1869 31.8059 16.9316C31.8059 19.9619 32.5133 22.7876 33.7141 25.2448C35.1027 28.0958 37.1608 30.4468 39.6656 31.9586L34.117 34.5454L19.974 41.1422C18.7459 41.7183 17.9382 43.1072 17.9382 44.657V60.223C17.9382 62.3089 19.3901 64 21.1816 64H71.482C73.2735 64 74.7253 62.3089 74.7253 60.223V44.657C74.7263 43.1131 73.9323 41.7378 72.7159 41.1491V41.1491Z" fill="#EEBF00"/>
</svg>
