<svg width="147" height="101" viewBox="0 0 147 101" fill="none" xmlns="http://www.w3.org/2000/svg">
<path d="M144.059 62.1019L119.296 50.2919C125.07 46.6612 128.993 39.5574 128.993 31.3902C128.993 19.5266 120.736 9.91821 110.544 9.91821C107.042 9.91821 103.808 11.1131 101.023 13.0792C102.748 17.4645 103.631 22.1354 103.626 26.8477C103.626 34.1641 101.467 41.1027 97.7735 46.8386C99.0174 48.2504 100.466 49.4675 102.071 50.4494L102.056 50.454L118.008 58.0597C122.517 60.243 125.433 65.0717 125.433 70.3685V91.0847H142.489C144.767 91.0847 146.611 88.9412 146.611 86.2958V66.5527C146.611 64.5912 145.603 62.8501 144.059 62.1019ZM45.2975 50.2322C46.6281 49.3749 47.8453 48.3535 48.9206 47.1921C45.0742 41.4071 42.8434 34.3385 42.8434 26.8477C42.8434 21.843 43.8318 17.1016 45.5622 12.8176C42.8694 11.0244 39.7895 9.91821 36.4618 9.91821C26.2628 9.91821 18.0069 19.5266 18.0069 31.3902C18.0069 39.6905 22.063 46.8738 27.9886 50.4494L2.97468 62.0927C1.41408 62.8256 0.387451 64.5851 0.387451 66.5527V86.2943C0.387451 88.9397 2.23722 91.0832 4.50927 91.0832H21.0409V70.367C21.0409 65.0074 24.0061 60.1588 28.6037 58.0046L45.2975 50.2322Z" fill="#EEBF00"/>
<path d="M114.718 64.8606L93.1805 54.5866L84.0739 50.2414C88.0519 47.7368 91.2818 43.869 93.3962 39.2101C95.1598 35.3268 96.0722 31.1112 96.0722 26.8462C96.0722 24.3339 95.6744 21.9487 95.119 19.646C92.4094 8.48771 83.696 0.268555 73.2369 0.268555C62.9737 0.268555 54.3935 8.19548 51.5171 19.0355C50.8531 21.5218 50.3956 24.1075 50.3956 26.8462C50.3956 31.603 51.5079 36.0384 53.3959 39.8956C55.5792 44.3708 58.8152 48.0612 62.7534 50.4342L54.0293 54.4948L31.7923 64.8499C29.8615 65.7541 28.5916 67.9343 28.5916 70.367V94.8011C28.5916 98.0753 30.8743 100.73 33.691 100.73H112.778C115.595 100.73 117.878 98.0753 117.878 94.8011V70.367C117.879 67.9435 116.631 65.7847 114.718 64.8606Z" fill="#EEBF00"/>
</svg>
