<svg width="131" height="105" viewBox="0 0 131 105" fill="none" xmlns="http://www.w3.org/2000/svg">
<path d="M130.477 35.3495C130.155 32.4292 127.71 30.1506 124.704 30.1506H115.493C105.971 12.2843 87.1594 0.116699 65.5 0.116699C43.839 0.116699 25.029 12.2843 15.5054 30.1521H6.29591C3.29101 30.1521 0.844812 32.4322 0.523182 35.351H0.458252V99.0504C0.458652 100.598 1.07371 102.082 2.16815 103.176C3.2626 104.27 4.74682 104.885 6.2944 104.885H124.706C125.472 104.885 126.231 104.735 126.939 104.442C127.647 104.149 128.291 103.719 128.833 103.177C129.375 102.635 129.805 101.992 130.098 101.284C130.391 100.576 130.542 99.8168 130.542 99.0504V35.3495H130.477ZM33.5152 30.1506C41.1543 20.9758 52.6544 15.1246 65.5 15.1246C78.3441 15.1246 89.8442 20.9758 97.4833 30.1506H33.5152Z" fill="#EEBF00"/>
</svg>
