<svg width="75" height="61" viewBox="0 0 75 61" fill="none" xmlns="http://www.w3.org/2000/svg">
<path d="M74.937 20.6186C74.7517 18.936 73.3431 17.6231 71.611 17.6231H66.304C60.8178 7.32931 49.9793 0.318848 37.5 0.318848C25.0199 0.318848 14.1823 7.32931 8.69519 17.624H3.38905C1.65775 17.624 0.248355 18.9377 0.0630445 20.6194H0.0256348V57.3204C0.0258655 58.212 0.380235 59.0671 1.01081 59.6975C1.64139 60.3279 2.49653 60.6821 3.38819 60.6821H71.6118C72.0534 60.6823 72.4907 60.5955 72.8987 60.4266C73.3067 60.2578 73.6775 60.0102 73.9897 59.698C74.302 59.3858 74.5497 59.0151 74.7187 58.6072C74.8876 58.1992 74.9745 57.762 74.9744 57.3204V20.6186H74.937ZM19.0717 17.6231C23.473 12.337 30.0989 8.96578 37.5 8.96578C44.9002 8.96578 51.5262 12.337 55.9275 17.6231H19.0717Z" fill="#EEBF00"/>
</svg>
