<svg width="65" height="45" viewBox="0 0 65 45" fill="none" xmlns="http://www.w3.org/2000/svg">
<path d="M64.9676 15.1332C64.8068 13.8788 63.5853 12.9001 62.083 12.9001H57.4805C52.7225 5.22621 43.3228 0 32.5 0C21.6765 0 12.2775 5.22621 7.51875 12.9008H2.91696C1.41547 12.9008 0.193156 13.8801 0.032444 15.1338H0V42.4939C0.000200076 43.1586 0.30753 43.7961 0.854403 44.266C1.40127 44.736 2.14291 45 2.9162 45H62.0838C62.4668 45.0002 62.846 44.9355 63.1998 44.8096C63.5537 44.6837 63.8752 44.4991 64.146 44.2664C64.4169 44.0337 64.6317 43.7573 64.7782 43.4532C64.9247 43.1491 65.0001 42.8231 65 42.4939V15.1332H64.9676V15.1332ZM16.5179 12.9001C20.3349 8.9594 26.0813 6.44617 32.5 6.44617C38.9179 6.44617 44.6643 8.9594 48.4814 12.9001H16.5179V12.9001Z" fill="#EEBF00"/>
</svg>
